<?xml version="1.0" standalone="no"?>
<!DOCTYPE svg PUBLIC "-//W3C//DTD SVG 20010904//EN"
 "http://www.w3.org/TR/2001/REC-SVG-20010904/DTD/svg10.dtd">
<svg version="1.0" xmlns="http://www.w3.org/2000/svg"
 width="260.000000pt" height="260.000000pt" viewBox="0 0 260.000000 260.000000"
 preserveAspectRatio="xMidYMid meet">
<metadata>
Created by potrace 1.11, written by Peter Selinger 2001-2013
</metadata>
<g transform="translate(0.000000,260.000000) scale(0.100000,-0.100000)"
fill="#000000" stroke="none">
<path d="M200 1708 l0 -883 273 1 c149 1 277 2 283 3 8 1 11 69 12 224 0 122
1 230 1 241 1 17 32 -6 147 -109 108 -97 368 -310 378 -310 11 0 155 117 326
265 14 11 36 31 50 42 14 12 53 45 86 74 37 33 63 49 66 41 2 -6 3 -114 2
-239 -1 -158 2 -228 10 -231 6 -2 133 -3 281 -2 l270 0 3 883 2 883 -142 -118
c-79 -64 -170 -140 -204 -167 -33 -28 -80 -67 -104 -86 -24 -19 -174 -143
-334 -274 -160 -131 -296 -242 -301 -247 -10 -8 -61 32 -445 348 -63 52 -133
110 -155 128 -172 141 -303 249 -320 263 -11 9 -57 48 -103 85 l-82 69 0 -884z"/>
<path d="M200 188 l0 -188 1095 0 1095 0 0 188 0 187 -1095 0 -1095 0 0 -187z"/>
</g>
</svg>
